# xmcd
#
# Track frame offsets:
#	150
#	20780
#	41702
#	59176
#	72714
#	92014
#	106438
#	120178
#	140166
#	163269
#	176797
#	193386
#	214365
#	225468
#	240413
#	255393
#	275114
#	299833
#	318961
#	342029
#
# Disc length: 4714 seconds
#
# Revision: 1
# Processed by: cddbd v1.5PL3 Copyright (c) Steve Scherf et al.
# Submitted via: audiograbber 1.81.02
#
DISCID=49126814
DTITLE=Celine Dion - As 20 Mais
DYEAR=2004
DGENRE=Countey
TTITLE0=Because You Loved ME
TTITLE1=My Heart Will Go On
TTITLE2=Imotality
TTITLE3=You Make me Fell Like A Natural Women
TTITLE4=The Power of Love
TTITLE5=Avn Existe Amor
TTITLE6=Let´s Talk About Love
TTITLE7=To Love You More
TTITLE8=All By My Self
TTITLE9=The Greatest Reward
TTITLE10=When I Need You
TTITLE11=A New Days Has Come
TTITLE12=Can´t Help Falling In Love
TTITLE13=Hve You Ever Been Love
TTITLE14=Beuaty and The Beast
TTITLE15=Goodbye´s (The Saddest Word)
TTITLE16=I Love You
TTITLE17=Right In Front of Love
TTITLE18=Dreamin Of You
TTITLE19=Fly
EXTD=Ripped by Calango Tejo - Fortaleza - Ceara
EXTT0=
EXTT1=
EXTT2=
EXTT3=
EXTT4=
EXTT5=
EXTT6=
EXTT7=
EXTT8=
EXTT9=
EXTT10=
EXTT11=
EXTT12=
EXTT13=
EXTT14=
EXTT15=
EXTT16=
EXTT17=
EXTT18=
EXTT19=
PLAYORDER=
